<?xml version="1.0" encoding="utf-8"?>
<!-- Generator: Adobe Illustrator 16.0.0, SVG Export Plug-In . SVG Version: 6.00 Build 0)  -->
<!DOCTYPE svg PUBLIC "-//W3C//DTD SVG 1.1//EN" "http://www.w3.org/Graphics/SVG/1.1/DTD/svg11.dtd">
<svg version="1.1" id="Layer_1" xmlns="http://www.w3.org/2000/svg" xmlns:xlink="http://www.w3.org/1999/xlink" x="0px" y="0px"
	 width="432px" height="432px" viewBox="0 0 432 432" enable-background="new 0 0 432 432" xml:space="preserve">
<rect fill="#898989" width="432" height="432"/>
<path fill="#FFFFFF" d="M269.099,163.293H162.906c-7.699,0-13.939,6.241-13.939,13.943v77.531c0,7.697,6.241,13.939,13.939,13.939
	h106.193c7.694,0,13.935-6.242,13.935-13.939v-77.531C283.033,169.534,276.793,163.293,269.099,163.293z M274.82,178.603v74.793
	c0,0.672-0.132,1.318-0.306,1.938l-45.798-45.789l37.907-37.907h1.223C271.695,171.638,274.82,174.754,274.82,178.603z
	 M157.182,178.603c0-3.832,3.101-6.939,6.935-6.965l38.151,38.152l-44.949,44.951c-0.089-0.441-0.137-0.881-0.137-1.344V178.603z
	 M267.847,260.365H164.154c-1.53,0-2.928-0.51-4.074-1.34l45.713-45.71l9.58,9.579l9.827-9.827l46.213,46.212l2.479-2.471
	C272.695,258.918,270.447,260.365,267.847,260.365z"/>
</svg>
